<?xml version="1.0" encoding="utf-8"?>
<!-- Generator: Adobe Illustrator 25.0.0, SVG Export Plug-In . SVG Version: 6.00 Build 0)  -->
<svg version="1.1" id="katman_1" xmlns="http://www.w3.org/2000/svg" xmlns:xlink="http://www.w3.org/1999/xlink" x="0px" y="0px"
	 viewBox="0 0 3478.3 2550.3" style="enable-background:new 0 0 3478.3 2550.3;" xml:space="preserve">
<style type="text/css">
	.st0{fill:#FFFF00;}
	.st1{fill:#FFFFCC;}
	.st2{fill:#CCCC00;}
</style>
<path class="st0" d="M1416.1,749.6l-165.6,26.9l-151.1,66.2l-128.3,80.7l-122.1,149l-69,73.1l-66.7,24.6l-17.6-43.1l30.8-44.5
	l6.9-62.8l20.7,0.8l22.6,20.6l-6.1-64l-25-16.8l0.8-24.4l-59.3,33.5l-53.7,63.3l-11.2,56.6l23,45.3l21.4,77l43.5,20.6l45.8-2.2
	l43.4-25.2l-29,146.9l29,163.5l-31.9,75.5L663,1703.4l18.6,67.2l49.5,77.9l93.3,65.7l49.5,6.8l55,1.9l-34.3,140.9l126.3,51.7
	l157.3,20.7l53.8-35.2l4.1-95.2l60-99.3l4.1-78.6l144.9,10.4l134.5-12.4l-134.5,80.7l22.8,97.3l84.8,132.5l82.8,35.2l66.2-26.9
	l26.9-53.8l138.7-105.5l26.9,22.8l217.3,8.3l43.5-35.2l4.1-62.1l-14.5-26.9l-10.4-167.6l-72.4-144.9l12.4-64.2l43.5,22.8
	l122.1,113.8l60,4.2l66.2-26.9l66.2-49.7l33.1-107.6l194.6,12.4l118-45.5l95.2-89l68.3-128.3l16.5-151.1l-14.5-175.9l-37.2-157.3
	l-37.3-49.7l-51.7-16.6l-91.1,99.3l-82.8,29l-72.4-120l-72.4-66.2l-39.3-24.8l-157.3-130.4l-126.2-68.3l-126.3-10.3L1902.4,404
	l-128.3,47.6l-89,72.4l-70.4,84.9l-72.4,20.7L1416.1,749.6"/>
<path class="st1" d="M935.9,1123.2c-141.8,165.4-110.3,366-71,562.6c-21-53-42-106-62.9-159L778.8,1381c2.2-49.7,4.4-99.4,6.6-149.1
	l59.6-142.4L934.4,957l139.1-115.9l152.4-62.9l178.9-23.2l-165.6,188.8C1106.2,986.9,1027.8,1016,935.9,1123.2"/>
<path class="st1" d="M1603.5,619.2c-98.6,96.2-152.4,168.8-215.2,281.4c-44.9,80.6-95.2,158.2-142.4,237.6
	c-23.9,40.2-26.1,73.9-33.3,120.3l-69.6-82.8c11.1-33.1,22.1-66.3,33.1-99.4l112.6-202.1L1527.4,639
	C1552.8,632.4,1578.1,625.8,1603.5,619.2 M2090.5,380.7c-79,29.6-210.1,39.4-219.2,130c-6.5,64.4,4.9,96.7,43.7,164.8
	c-95.8-99.2-119.5-83.8-304.7-53l79.5-112.6l139.1-86.1l178.9-39.7L2090.5,380.7"/>
<path class="st2" d="M2308.4,1606.7c26.3,16.2,25.7,28,21.3,39.1c20.7-8.3,41.5-16.6,62.2-24.9l40.3-54.1l29.9-77.1l-38.2-28.7
	l-167.1,21.3c-4.1,11.3-8.3,22.5-12.4,33.8c1.2,16,2.4,32,3.6,48c5.3,9.5,10.7,19,16,28.4c8.3,4.1,16.6,8.3,24.9,12.4
	C2295.3,1605.5,2301.8,1606.1,2308.4,1606.7 M2292.8,1320.9c-83.8,24.2-83.1,30.8-107.8,113.9
	C2217.6,1382.5,2241.8,1356,2292.8,1320.9 M2849.7,699.1c-14.9,6.9-29.4,10.2-38.7,23.8c-20,29.3-37.2,54-70.3,74.6
	c-16.7,10.4-33.9,17.1-51.6,22.6c-14.7,4.6-23.5,0.5-36,9.5c7.4,1.3,14.8,2.6,22.2,3.9h49l60.4-37.3l35.5-37.3L2849.7,699.1
	 M1515.6,885c-32.9,90.2-61.7,167.5-111.6,249.1c63.9-68.9,102.7-127.5,139.4-205.4c14.2-30.3,16.9-65.8,56.6-52.6
	c1.8,30.2,8.2,60.4,9.9,90.6c21.4-153.5,81.8-217.7,222.2-277.3l-119.1,14.2l-112,24.9l-55.1,80L1515.6,885 M1787.5,881.4
	c30.3,142.5,73.9,279.2,92.8,424c12.3,94.1,13.6,139.2-33.7,220.4c-51.7-3.3-83.8,2.5-133.9,18.9
	c-199.2,65.3-313.4,161.3-447.6-32.1l128.5,60.6c30.5-6,61.1-12,91.6-18c53.9-31.4,107.8-62.8,161.8-94.2l126.2-24.9l40.9-170.6
	l-30.2-225.8c-1.2-35.5-2.4-71.1-3.6-106.6C1782.8,915.8,1785.2,898.6,1787.5,881.4 M2130.6,1763.1c-16.7,115.8,38.5,178,15.6,210
	c-6.5,9-15.3,24.8-25,29.2c-35,15.5-83.1-2.9-86.6,6.2h-115.5l-46.2-19.6l71.1-83.5c23.1-50.4,46.2-100.7,69.3-151.1l44.4-152.9
	h23.1L2130.6,1763.1"/>
<path class="st2" d="M1936.4,1426.6c9.4,52.6,25.7,65,50.4,115.9c-16.5,83-42.9,181.7-74.7,255c-13.4,30.9-24.2,47.9-47.9,71.8
	c-39.9,40.3-80.3,75.4-125.6,110.4c-32.6,25.1-55.4,12.5-95.6,6.8c-17.1,31-21.8,48.2-53.3,64c-48.4,24.2-91.7-28-129.8-58.7
	c27.4,42.9,54.9,85.7,82.3,128.6c19,17.8,37.9,35.5,56.9,53.3l48,7.1l64-39.1c11.3-21.3,22.5-42.7,33.8-64
	c23.7-17.8,47.4-35.5,71.1-53.3c29-24.9,58.1-49.8,87.1-74.6l55.1-78.2l49.8-92.4c21.3-64,42.7-128,64-192
	c1.8-24.3,3.5-48.6,5.3-72.9c-26.7-11.8-53.3-23.7-80-35.5C1977.7,1460.3,1956,1444.9,1936.4,1426.6 M1298.7,1796.9
	c89.7,0,184.5-5,266.6-42.7c23.2-34.9,46.2-63.4,74.6-94.2c-25.9,48.9-34,76.5-40.9,131.5l-26.7,39.1c-67.5,1.8-135.1,3.5-202.6,5.3
	c-21.9-2.4-43.8-4.7-65.8-7.1c-2.4-2.4-4.7-4.8-7.1-7.1C1297.6,1813.4,1298.2,1805.1,1298.7,1796.9 M1286.3,1734.6l-7-63.1
	c-15.3,92.3-11.6,154.1-54.1,236.7c-31.7,36.7-70.8,70.2-115.5,88.1c3.8,22.7,4.9,36.8,2.7,53.4c-7.9,59.8-127.4,33.4-176.6,31
	l236.7,60.9l53.3-21.3c5.9-34.4,11.9-68.7,17.8-103.1l49.8-92.4l8.9-56.9L1286.3,1734.6 M1153,1213.8c-2.5,44.9-5.4,63.6,14.4,103.2
	c25.1,50.4,56,97.7,83.3,147.4l8.9-99.5C1224.1,1314.6,1188.5,1264.2,1153,1213.8 M788.1,1552.7c-7.7,16.4-15.4,32.8-23.1,49.1
	c21.2,71.3,40,116.5,80.3,178.8c-7,25.2-12.3,36.3-28.4,56.9c-35.5-5.4-67-7-103-6.9c39.7,30.8,79.4,61.6,119.1,92.4
	c19.6-3.6,39.1-7.1,58.7-10.7l58.7-58.7L866.8,1724C840.6,1666.9,814.3,1609.8,788.1,1552.7 M2849.9,675.5
	c24.2,108.8,55.4,209.1,52.5,320.5c-3.6,136.7-30.2,309.3-156.8,391.7c-141.8,92.3-308.3,48.6-463.9,9.1l190.2,78.2
	c59.2,3,118.5,5.9,177.8,8.9c40.3-11.8,80.6-23.7,120.9-35.5c31.4-26.1,62.8-52.1,94.2-78.2l71.1-149.3l26.7-172.4
	c-7.1-56.3-14.2-112.6-21.3-168.9L2902,712.6C2884.7,700.2,2867.3,687.9,2849.9,675.5 M733.6,999.7c-64.4,41.9-89.7,60.3-82.6,138
	l19.2,69.8l27.3,18.5l33.7,11.2l61-14.4c10.4-32.4,20.9-64.7,31.3-97.1l-86.6,42.5h-20c-7.5-11.5-15-23-22.5-34.5l27.3-40.1
	l14.4-76.2c6.2,1.9,12.3,3.8,18.4,5.6c7.5,5.9,15,11.8,22.5,17.6l-3.2-40.1l-15.2-25.7c-5.1-4.3-10.2-8.6-15.2-12.8L733.6,999.7
	 M2178,387.8c57.1,53.1,127.3,99.2,173,164c17.7,25.1,37.3,37.9-0.3,73.4c39.8-11.4,54.5-10.1,86.4-6.3
	c57.9,7,112.2,89.3,115.6,148.3c-0.7,5.5-16.1,18-60.9,30.4c-0.9,1.7-25.3-3.3-24.7-1.7c4.7,12.7,10.9,14.7,20.4,20.6
	c2.1,14.2,3.4,36,13,51.5c28.2-0.5,55.7,2.6,83.3,8c9.3,15.4,7.9,30.8,7.1,46.2l32-5.3c-2.9-24.3-5.9-48.6-8.9-72.9
	c9.5-16,18.9-32,28.4-48l-40.9-92.4c-26.1-24.9-52.1-49.8-78.2-74.7l-7.5-0.4c-29.3-18-58.6-36-88-54l-143.5-117.4L2178,387.8
	 M2274.2,825.7c-3,5.3-7.6,13.7-13.4,19.5c23.8,22.5,35.5,37.6,44,69.4c-26.9,13.3-53.8,26.7-80.7,40.1l-68.3,65.5
	c-30-16.1-37.4-28.5-51.9-59.3c-16.9,4.5-32.9,8.8-46.8,3.7c8.8,0.1,14.3-2.1,23.1-7.6l43.5-45.1c25.6-19.4,51.2-38.8,76.8-58.1
	l50.2-16.4C2257.1,834.7,2267.8,828.4,2274.2,825.7"/>
<path class="st2" d="M2348.5,906c-85.6,46.1-167.6,92.4-211.3,180C2137.2,974.9,2248.7,926,2348.5,906 M2120.2,687.5
	c-63.6,43.3-108.5,130.8-102.9,216c-20.7-73.8-13.4-143.5,50.2-194.5c10.7-5.2,21.5-10.4,32.2-15.6
	C2106.5,691.4,2113.3,689.4,2120.2,687.5"/>
<path d="M2975.5,888.7c-11.5-72.7-30.6-143.2-57.2-194c-3.2-6.2-8.1-12.5-14.2-18.5c-13.2-13-32.7-25.3-52.8-32.2
	c-21.3-7.3-43.9-8.8-61.7,0.5c-4.6,2.4-9,5.6-12.8,9.5c-11.6,11.7-21.3,26-31.1,40.2c-10.9,15.9-21.8,31.9-34.9,43
	c-15.2,13-34.1,20.8-52,28c-7.5-18.3-16.6-35.9-27.1-52.6c-12.2-19.5-26.2-37.8-41.5-56.1c-11.2-13.5-23.9-25.6-37.9-36.2
	c-13.2-10.1-26.8-18.6-42.5-28.4c-42.3-26.5-78.2-58-114.9-90.2c-16.7-14.6-33.5-29.4-50-43c-87.4-72.1-168.9-107-256.1-112.5
	c-86.6-5.4-178,18.3-286,63.8c-52.1,21.9-90.8,47.8-124.5,79c-32.2,29.8-59.5,64.1-89.6,104.1c-17.5,1.2-33,3.8-48.8,10.2
	c-17.4,7-35,18.3-56,36.8c-14.6,12.9-29,26.1-43,39.7c-12.8,12.5-25.5,25.1-37.8,38.1c-98.3,15.8-178.4,33.2-250.1,61
	c-73.3,28.4-138,67.5-204.4,126.4c-26.1,23.1-50,48.7-71.2,76.4c-20.2,26.5-37.5,54.3-52.6,83.6c-13.3,14.7-26.6,29.5-41,42.5
	c-14,12.6-29,23.3-45.8,29.8l0,0c-9.8,3.8-13.8,6-14.2,5.8c-0.5-0.3-0.8-1.7-1.4-4.4c24.1-23,27.9-56.8,30.1-90.3
	c2.9,3.5,5.7,7.7,8.5,12.2c3.2,4.9,6.4,10,10.4,14.9l16.4,20.6l5.7-25.7c4.8-21.6,8.4-50.3,2.8-75.2c-3.6-16.2-11.1-30.6-24.2-40.8
	c1.3-3.3,2.4-6.3,3.6-9.2c4.1-10.5,8.3-21.3,11.9-31.4l7.1-20.2l-21.1,3.7c-28.1,4.9-88.4,38-130.9,82.1
	c-15.8,16.4-29.3,34.5-38.2,53.5c-9.3,19.8-13.4,40.4-9.8,61.1c3.1,18.1,12.2,35.8,28.6,52.6c3,12.1,5.8,22.6,8.7,32
	c3.4,10.8,7,20.4,11.6,29.8c12.4,25.7,32.1,41.4,54.9,48.7c18.3,5.9,38.6,6.2,58.5,1.8c-4,23.7-6.5,47.6-7.3,71.6
	c-1.3,33.5,0,70.6,3.7,113.6c0.8,9.4,2,19.8,3.6,31.1c1.4,9.6,3,19.1,4.7,28.5c-3.7,10.1-7.5,20.3-11.2,30.4l-17.4,47.2l-38.2,37.8
	c-11.9,11.7-23.8,23.5-35.6,35.3c-1,1-5,4.8-8.6,8.3c-24.1,23.2-28.8,27.8-22,68.5c4.4,26.1,12.9,51.3,25.2,74.7
	c11.8,22.5,27.7,44.4,48,64.8c25.4,25.4,67,57.1,110.6,73.6c24.9,9.5,50.6,14.1,74.7,10.2c-1.2,3.7-2.4,7.4-3.8,11.1
	c-3.8,10.6-8,21-12.7,31.2c-29.6,64.8,0.8,98.6,48,120.2c23.6,10.7,51.6,18,77.7,24.8c5.3,1.4,10.7,2.8,17.4,4.6
	c30.9,8.3,84.2,23.7,132.9,26.7c53.2,3.4,101.1-7.6,114-55.3c5.1-18.9,8-33.4,9.2-47.6c1.1-13.2,0.7-26.5-0.9-42.9
	c15.2-33.6,21.6-43,32.7-59.2c2.2-3.2,4.8-7,5.6-8.2c11.9-17.6,17.5-30.1,19.5-44.2c2-13.6,0.3-27.1-2.2-47.8
	c-0.2-2-0.6-4.8-1.1-8.6c30.6,4,61.4,6.1,92.3,6.3c15.5,0.1,31-0.4,46.4-1.2c-4,2-7.8,4-12.1,6.2l-5.8,3
	c-41.1,21.1-42.8,61.1-29.9,102.2c11.6,37.1,35.4,75,50.4,98c31.4,48.5,61.5,89.5,97.8,111.8c38.1,23.4,81.7,26.1,137.9-4.3
	c28.6-15.5,37.6-31.3,49.8-52.6c3.7-6.5,7.8-13.6,12.4-20.6c11.8-7.8,41.2-32.1,70.1-56c9.8-8.1,19.7-16.2,30.7-25.2
	c7.6,5.6,16.9,9.5,28,12.2c14.5,3.5,31.7,5,52.4,6.5c15.5,1.1,65.9,1.1,98.4,1.1c10.1,0,18.4,0,23.4,0c33.6,0.2,60.8-1.6,81.3-13.2
	c21.9-12.4,34.8-34.3,37.6-73.7c1.2-17.5,1.5-28.3-1-39.3c-2.3-10.3-6.7-19.7-14.3-33.3c-0.5-17-0.9-34-1.4-51
	c-0.5-18-1-36.1-1.4-54.1c-0.6-21.3-2.9-38.6-7.2-55.6c-4.3-16.9-10.4-33.1-18.6-52.6c-5.1-12.3-9.9-24.7-14.4-37.2l-11.8,4.3
	l1.8-0.7l10-3.7v0c-7-19-14-37.4-23.7-57.2c0.6-3.8,1.3-7.9,1.9-12.3l18.8,18.1l27.6,26.6c21.1,20.3,40.3,38.8,63,52.1
	c23.4,13.8,49.7,21.8,83.8,20.2c35.7-1.7,73.9-16.7,105.3-39.9c30.4-22.5,54.8-52.7,65-86.2l8.8-29.1l7.1-23.2
	c50,8.5,103.8,11.2,155.6,5.8c50.1-5.3,98.4-18,140.1-40.3c61.3-32.7,107.3-80.9,140.3-138.1h0c36.9-63.9,57.6-139.3,65.4-216.8
	C2991.9,1054.8,2988.5,970.2,2975.5,888.7L2975.5,888.7z M2327.2,1411.3c-28.8-9.7-48.9-23.9-74.2-39.8c6.9,31.1,10,64,0.8,95
	c-14.6,49.2-38.1,129.8,28.7,144.6c25.4,5.6,37,4.8,72.9-13.7c-29.1,6.6-43.7,5-63.7,1.3c-18.1-3.3-27.7-14.8-32.8-28.4
	c6.3,4.6,16.6,7,34.3,11.3c49.6,12,96.8-11.9,106-46.3c5.4-20.1,4.5-30.6,15.9-58c10.3,3.2,20.8,6.1,31.7,8.7l-18.4,60
	c-15.9,52-78,93.8-132.8,92.9c-50.6-0.9-82.8-32.6-117.7-63.7c-24.1-21.4-47.3-41.9-70.2-62.3c-63-19.9-113.6-43.1-172.1-86.4
	c41.6,48.9,69.9,76,127.9,100.4c-8.4,86.1-38.4,148.9-63.9,231.4c-11.6,37.3-102.7,186.6-128,201.2c-18,10.4-130.9,105.4-152.1,118
	c-15.8,21-29.7,50-53.5,62.6c-72.4,38.3-119-35-158-97c-17.7-28.2-67-109.5-24.1-132.3c40.6-21.5,63.4-36.9,104.8-64.1
	c6.1,11.1,16.5,21.8,23.3,32.9l-4.5-36.4c-2.7-22-2.6-39.8-0.9-61.9c1.7-21.4,3.4-42.8,5.1-64.2c-6.2,21.8-18.7,43.5-24.9,65.3
	c-2.5,8.7-4.6,15.7-5.7,22.3c-93,19-185.3,20.2-278.4,3.6c-5.9-34.4-13.2-70.3-19.2-96.1c-1.8,28.8-0.7,108.5-0.8,153.1
	c-0.1,34.6-1.6,46.4-19.4,75.8c-16.7,27.5-23.7,33.8-47.1,80.3c2,29.3,2,48.7-5.8,76.6c-13,46.3-143.8,10.4-178.2,1
	c-42.5-11.6-130.3-28.9-108.2-85.5c19.4-49.8,31.8-102.4,41.3-172.1c-77.8-112.1-150.2-265.8-164.1-402
	c-10.8-105.7-4.3-170.8,18.6-235.4c36.3-102.5,87-191.2,168.3-262.6c109.8-96.3,212.4-135,373-159.5c-38.6,43.3-76.9,89-118.5,138
	c-42.2,49.6-67.2,99.8-94,154.1c-37,75-36.2,103.5,12.8,169.4c42.3,56.7,65.1,82.3,83.5,137.8c-15.2,31.4-20.8,58-25.9,100.8
	c51.7,56.6,90.2,95.3,140.4,107.3c49.3,11.7,90.4,9.5,134.5-13.1c97.9-50.1,188.5-114.7,299-117.4c51.1-125.6,45.9-230.6,21.4-352.2
	c-16.8-83-23.5-161.6-28.7-246.3c-20.7,87.2-24.6,163.8-9.2,250.6c18.5,104.6,32.9,220.2-18.6,312.2c-99.9,7.6-185.5,68.4-275.5,115
	c-36.2,18.8-73.9,20.6-113.9,9.6c-37.2-10.2-62.3-34.8-102.3-81c-0.6-46.4,9.8-67.8,31.1-109.8c34.2-67.5,72-130.2,113.4-196.6
	c-50.7,61.3-98.8,112.4-138.8,174c-15.3-43.5-37.1-65.6-73.3-114.6c-35.3-47.8-39-68.8-12.6-124.2c26.6-55.6,49.1-104.5,94.3-153.3
	c78.1-84.3,149.6-178.2,235.1-261.3c46.4-45.1,65.2-43.5,126.7-52.9c55.6-8.4,109.9-19.1,166.6-32.2c-54.8,5.1-107.8,7-161.2,8.3
	l-1.7,0c52.5-67.1,83-104.5,168.3-141.5c210-91.2,343.5-101.1,508.5,37.6c42.8,36,80.1,70.8,123.5,101.9
	c-15.7,1.3-29.3,4.2-47.2,11.2c21.8-4.2,47,0,69.6,4.1c6.3,4.1,12.9,8.1,19.6,12.1c30.6,18,48,28,68.7,56.8
	c21.9,30.5,40.1,60.9,56.2,94.5c-10.5-3.8-19.4-6.9-27.2-9.3c-17.8-8.2-38.6-6.9-55.2,3.4l-1.3,0.6c-16.9,8.3-43.2,17.6-60.7,20.5
	c9,3.1,28.8,4.2,38.1,0.5c1.3-0.5,2.5-0.9,3.8-1.2c-4.3,7.4-7,15.6-7.8,24.1c-1.1,11.2,1.1,22.5,6.3,32.6l0,0.1
	c1.6,3.7,3.8,7.2,6.2,9.6c-8,3-16.2,6.3-24.7,10c39.2-6,74.4-7,112.6-2c2.5,12,5.1,24.8,7.4,37.8l-14.2,1.1c-0.4,0-0.8,0.1-1.1,0.1
	c-18.1-14.4-38.2-12-65.7-5.7c-83.7,19.1-64,66-102.5,136.8c40-48.8,37-100,102.1-115.4c15.2-3.6,25.5-8.1,35.8-6.5
	c-18.5,9.3-34.5,24.7-40.8,42.6c-17.9,50.5-6.8,93-26.4,140.2c24.3-42.1,25.8-83.3,47.5-127.6c7.8-15.9,36.8-41.4,54.6-41.8
	l14.6-0.3c4.3,28,6.9,55.9,5.2,79c-3,42.2-14,104.8-20.5,128.7c22-28.3,32.1-88.3,41.7-130.6c10.1-44,7.5-96.7-1.3-144
	c-12.1-64.8,54.6-54.3,93.4-84.8c28.5-22.5,48.1-58.3,74.2-83.7c25.9-25.2,66.7,11.8,76.9,36.4c44.2,106.9,64.3,275.1,52.6,382.8
	c-13.1,120.9-71.5,252.9-178.2,312.5C2622.6,1503.2,2462.3,1456.8,2327.2,1411.3L2327.2,1411.3z M2134,1948.4
	c-4.4,49.9-21.1,53.2-64.9,52.4c-19.9-0.4-99.2-0.7-119.3-2.4c-28.4-2.5-44.4-5-53.1-11.5c44.6-32.8,120.5-168.1,135.3-214.7
	c15.6-49.2,32.8-92.2,45.5-137.7c5.9,19,10.5,37.9,19,58c14.2,33.7,21.2,54.6,22.2,90.8l3.2,114.6
	C2134.3,1919.4,2136.2,1923.9,2134,1948.4L2134,1948.4z M790.3,1570.4c28.3,98.1,76.7,194.5,130.2,275.5v1.4
	c-3.4,13.9-7.2,27.5-15.4,38.4c-38.3,51.2-135.6-24-163.8-52.7c-30.8-31.5-51.4-68.7-56.3-103.6c-3.6-25.5-0.1-26.1,17.7-44.1
	l71.9-72.8L790.3,1570.4L790.3,1570.4z M736.2,953.6c-7.3,15.6-12.4,27.4-15.9,39.6c-15.3,52.7,6.9,99.8-41,138
	c22.5,45.4,21.5,63.5,73.8,42.5c20.2-8.1,36.8-19.4,51.7-32.9c-7.2,18.7-13.8,37.6-19.8,56.7c-1,3.2-2,6.5-3,9.7
	c-37.4,15.9-86.6,26-105.4-13.3c-9.1-19.1-14.3-37.8-21-61.9C593.9,1068.1,686,983.8,736.2,953.6L736.2,953.6z M766.5,1021.2
	c-7.6-7.6-13.7-12.8-23.5-11.7c0.8-6.4,1.9-12.7,3.5-18.5c0.8-3,1.6-6,2.5-8.9C761.7,989.6,765.1,1003.1,766.5,1021.2L766.5,1021.2z
	 M2613.9,782.8c2.3,4.9,4.6,9.9,6.9,14.9c-1.9,1.4-3.6,2.8-5.3,4.3c-3-7.1-7.4-13.5-12.9-18.9C2606.3,783,2610,782.9,2613.9,782.8
	L2613.9,782.8z M835.2,1072.6L835.2,1072.6L835.2,1072.6L835.2,1072.6z M1308.8,1845.1L1308.8,1845.1L1308.8,1845.1z M1864.1,2010.9
	L1864.1,2010.9L1864.1,2010.9z M2089.8,1581.9L2089.8,1581.9L2089.8,1581.9L2089.8,1581.9z M742.6,1149.3L742.6,1149.3l-0.4-1.1
	L742.6,1149.3L742.6,1149.3z M2909.1,1327.4l0.3,0.2L2909.1,1327.4z M525.2,1133.9c9.8-111,31.4-158.9,110.3-242.5
	C536.5,961.2,511.8,992.8,525.2,1133.9"/>
<path d="M499.6,1043.3c10.9-50,21-68.8,51.9-109.8C501.5,968.4,495,982.7,499.6,1043.3 M1660.3,346.8
	c-59.3,14.3-70.6,25.2-88.3,83.3C1600.3,387.6,1616.6,373.8,1660.3,346.8"/>
<path d="M1753.7,338.3c-117.5,28.8-152.1,49.3-191.1,185.5C1612.2,424.1,1649.8,387.3,1753.7,338.3 M2006.9,835
	c12.5-55.5,34.8-109,121-150.4C2013.6,713.2,1992.2,761.2,2006.9,835 M2733.9,838.8c67.7-24.1,100.3-78.5,116.5-142.5
	c-26.5,53.6-67.4,98.5-122.9,126c-29.8,14.7-48.8,9.6-82.1,6.4C2679.3,838.4,2700.7,850.6,2733.9,838.8 M2273,893.2
	c-8.7-18.2-24.2-32.3-43.1-39.2c16.6-8.9,32.9-18.2,45.6-29.7c-37.3,17.2-80.6,13-112.6,34.6c-28.2,19-67,79.3-95.6,104.9
	c20.7-8,40.7-22,59.1-36.6c0.2,28.4,16.1,54.3,41.2,67.4c-10.6,13.9-19,29.2-25,45.6c54.5-64.6,133.5-113.3,207.8-134.2
	c-20.8-0.3-45.3,3.6-70.4,11.8C2279,909.3,2276.7,901,2273,893.2 M2194.6,1381.1c-2.6,16.7-6.3,37.5-8.9,54.2
	c7.1-18.9,15.6-40.9,23.8-59c8.7-19.1,13.6-20.9,32.2-31c13.1-7.1,37-17,50.1-24.1c-13.5,2.3-37.7,7.2-51.3,9.5
	C2204.4,1336.9,2200.2,1345.6,2194.6,1381.1 M1578,735.6c-41.9,41.4-82.6,183.5-95.6,240.4c20.5-47.2,71.7-179.3,111-212.9
	c10.9-9.3,18.4-15,26.6-19.1c-28.1,47.2-26.1,58.9-16.2,122.2c8.4-64.3,30.6-89.1,67.1-137.1c40-10,77.4-22.1,118.4-38
	c-46.2,5.2-92.4,10-138.7,14.4C1611.8,709,1605.5,708.3,1578,735.6"/>
<path class="st1" d="M2148.7,977.5c-7.6-16-0.8-35.2,15.2-42.8c16.1-7.6,35.4-0.8,43,15.3c0.7,1.4,1.3,2.9,1.7,4.5
	c-15.3,11.4-29.3,24.7-41.1,40.2C2159.6,991.4,2152.6,985.7,2148.7,977.5 M2506.5,839.1c1.3-13.2,12.6-23,25.8-21.7
	c13.3,1.3,23,13.1,21.7,26.3c-0.3,2.7-1,5.4-2.2,7.9c-12.1,2.1-24.2,5.6-36.7,10.2C2509.9,856.4,2505.7,846.7,2506.5,839.1"/>
</svg>
